<?xml version="1.0" encoding="UTF-8"?>
<svg id="Lager_1" xmlns="http://www.w3.org/2000/svg" version="1.1" viewBox="0 0 20 26">
  <!-- Generator: Adobe Illustrator 29.0.0, SVG Export Plug-In . SVG Version: 2.1.0 Build 186)  -->
  <defs>
    <style>
      .st0 {
        fill: #828282;
      }
    </style>
  </defs>
  <path class="st0" d="M19.1,1.4c-.2-.1-.4-.2-.6-.3-.2,0-.4,0-.6,0l-10.9,2.9c-.4.1-.7.3-.9.6-.2.3-.4.7-.4,1.1v12.4c0,.4-.2.7-.6.8h0s-2.8,1-2.8,1c-1.1.4-1.8,1.4-1.8,2.6,0,.5.1,1,.3,1.4.2.4.5.8.9,1.1.5.4,1.1.6,1.8.6.3,0,.7,0,1-.2h0s1.2-.4,1.2-.4c.5-.2,1-.5,1.3-.9.3-.4.5-1,.5-1.5v-11.6c0-.4.3-.7.7-.8h0s9.6-2.6,9.6-2.6c0,0,0,0,0,0,0,0,0,0,0,0,0,0,0,0,0,0,0,0,0,0,0,0v7.8c0,.4-.2.7-.6.8h0s-2.8,1-2.8,1c-.5.2-1,.5-1.3,1-.3.5-.5,1-.5,1.6,0,.5.1,1,.3,1.4.2.4.5.8.9,1.1.4.3.8.5,1.3.5.5,0,1,0,1.4-.1h0s1.2-.4,1.2-.4c.5-.2,1-.5,1.3-.9s.5-1,.5-1.5V2.5c0-.2,0-.4-.1-.6,0-.2-.2-.4-.4-.5Z"/>
</svg>